<svg width="18" height="12" viewBox="0 0 18 12" fill="none" xmlns="http://www.w3.org/2000/svg">
<path d="M1.19736 7.94258C1.97371 4.21451 5.21912 1.56559 8.86978 1.56559C12.5193 1.56559 15.7647 4.21451 16.5422 7.94258C16.573 8.09051 16.6613 8.22016 16.7877 8.30299C16.9141 8.38582 17.0682 8.41505 17.2161 8.38426C17.364 8.35346 17.4937 8.26516 17.5765 8.13878C17.6593 8.0124 17.6886 7.85829 17.6578 7.71036C16.7733 3.47003 13.0737 0.427246 8.86978 0.427246C4.66589 0.427246 0.966275 3.47003 0.0817833 7.71036C0.0509888 7.85829 0.0802223 8.0124 0.163053 8.13878C0.245883 8.26516 0.375526 8.35346 0.52346 8.38426C0.671394 8.41505 0.825503 8.38582 0.951884 8.30299C1.07826 8.22016 1.16656 8.09051 1.19736 7.94258ZM8.8584 3.84227C9.91508 3.84227 10.9285 4.26203 11.6757 5.00922C12.4228 5.7564 12.8426 6.76979 12.8426 7.82647C12.8426 8.88314 12.4228 9.89654 11.6757 10.6437C10.9285 11.3909 9.91508 11.8107 8.8584 11.8107C7.80173 11.8107 6.78833 11.3909 6.04115 10.6437C5.29397 9.89654 4.8742 8.88314 4.8742 7.82647C4.8742 6.76979 5.29397 5.7564 6.04115 5.00922C6.78833 4.26203 7.80173 3.84227 8.8584 3.84227Z" fill="#6A707C"/>
</svg>
